<?xml version="1.0" encoding="UTF-8"?>
<svg width="148px" height="131px" viewBox="0 0 148 131" version="1.1" xmlns="http://www.w3.org/2000/svg" xmlns:xlink="http://www.w3.org/1999/xlink">
    <!-- Generator: Sketch 52.6 (67491) - http://www.bohemiancoding.com/sketch -->
    <title>Artboard</title>
    <desc>Created with Sketch.</desc>
    <defs>
        <polygon id="path-1" points="0.0681403912 0.144138333 145.792438 0.144138333 145.792438 46.6851381 0.0681403912 46.6851381"></polygon>
    </defs>
    <g id="Artboard" stroke="none" stroke-width="1" fill="none" fill-rule="evenodd">
        <g id="Group-81-Copy-7">
            <path d="M26.251866,46.7114967 C11.2197951,46.7114967 2.02596484,44.1105495 1.02495025,39.5764841 C-1.02426479,30.2837137 30.0456102,15.4466765 70.2843743,6.50304472 C89.1526566,2.30932178 107.430441,0 121.753376,0 C136.785447,0 145.979277,2.60094724 146.980292,7.13501265 C147.946254,11.5148075 141.149466,17.5584237 128.333109,23.7150363 C115.232963,30.0083273 97.2585154,35.8658715 77.7208678,40.208452 C58.8525855,44.402175 40.5748006,46.7114967 26.251866,46.7114967" id="Fill-1" fill="#FEFEFE"></path>
            <g id="Group-5" transform="translate(1.559055, 0.000000)">
                <mask id="mask-2" fill="white">
                    <use xlink:href="#path-1"></use>
                </mask>
                <g id="Clip-4"></g>
                <path d="M120.390135,0.143804679 C106.695897,0.144471986 88.6320997,2.27318162 69.1834689,6.56329895 C28.9971804,15.4258045 -1.90261972,30.1559413 0.166255263,39.4628734 C1.2335214,44.2654826 10.8677255,46.6851381 25.4704454,46.6851381 C39.1646826,46.6851381 57.2284802,44.5550939 76.676441,40.2656438 C116.86273,31.402471 147.7632,16.6730015 145.694325,7.36606938 C144.626389,2.56346021 134.992184,0.143137372 120.390135,0.143804679 M120.394824,0.14380468 L120.394824,0.616258104 C135.209926,0.616258104 144.262594,3.11398857 145.230704,7.46883468 C146.165315,11.6715348 139.456881,17.5351622 126.82589,23.5556068 C113.822394,29.7548898 95.9756679,35.5250942 76.5739352,39.8045346 C57.8381552,43.9365002 39.689271,46.2120174 25.4704454,46.2120174 C10.6519943,46.2120174 1.59731645,43.7149542 0.62987621,39.3607754 C-0.304735381,35.157408 6.40302896,29.2937806 19.0340199,23.2733359 C32.0381855,17.074053 49.884912,11.3038486 69.2866447,7.02507546 C88.0204148,2.89310992 106.168629,0.616925411 120.390135,0.616258104 L120.394824,0.14380468" id="Fill-3" fill="#6F6F6E" mask="url(#mask-2)"></path>
            </g>
            <g id="Group-9" transform="translate(13.527559, 16.412148)">
                <path d="M0.0603906352,14.5756996 C0.0603906352,14.5756996 17.7939339,3.8721251 28.4668998,0.57871757" id="Fill-6" fill="#FEFEFE"></path>
                <path d="M0.0603906352,14.5756996 C0.0603906352,14.5756996 17.7939339,3.8721251 28.4668998,0.57871757" id="Stroke-8" stroke="#6F6F6E" stroke-width="1.5" stroke-linecap="round" stroke-linejoin="round"></path>
            </g>
            <g id="Group-13" transform="translate(15.417323, 16.412148)">
                <path d="M32.8790628,0.0527080746 C32.8790628,0.0527080746 8.21702917,9.18459528 0.0507928634,17.220656" id="Fill-10" fill="#FEFEFE"></path>
                <path d="M32.8790628,0.0527080746 C32.8790628,0.0527080746 8.21702917,9.18459528 0.0507928634,17.220656" id="Stroke-12" stroke="#6F6F6E" stroke-width="1.5" stroke-linecap="round" stroke-linejoin="round"></path>
            </g>
            <g id="Group-17" transform="translate(24.236220, 18.305857)">
                <path d="M28.9594982,0.57871757 C28.9594982,0.57871757 8.27036439,9.63558827 0.0603906352,14.9050403" id="Fill-14" fill="#FEFEFE"></path>
                <path d="M28.9594982,0.57871757 C28.9594982,0.57871757 8.27036439,9.63558827 0.0603906352,14.9050403" id="Stroke-16" stroke="#6F6F6E" stroke-width="1.5" stroke-linecap="round" stroke-linejoin="round"></path>
            </g>
            <g id="Group-21" transform="translate(33.055118, 18.937093)">
                <path d="M26.4383162,0.238986117 C26.4383162,0.238986117 4.09313641,6.70915965 0.51790764,12.3902876" id="Fill-18" fill="#FEFEFE"></path>
                <path d="M26.4383162,0.238986117 C26.4383162,0.238986117 4.09313641,6.70915965 0.51790764,12.3902876" id="Stroke-20" stroke="#6F6F6E" stroke-width="1.5" stroke-linecap="round" stroke-linejoin="round"></path>
            </g>
            <g id="Group-25" transform="translate(48.173228, 17.674620)">
                <path d="M15.1004495,0.273126991 C15.1004495,0.273126991 1.01311954,6.94619795 0.325932713,9.65149699" id="Fill-22" fill="#FEFEFE"></path>
                <path d="M15.1004495,0.273126991 C15.1004495,0.273126991 1.01311954,6.94619795 0.325932713,9.65149699" id="Stroke-24" stroke="#6F6F6E" stroke-width="1.5" stroke-linecap="round" stroke-linejoin="round"></path>
            </g>
            <g id="Group-29" transform="translate(55.102362, 22.724512)">
                <path d="M8.16984395,0.554604338 C8.16984395,0.554604338 1.09754617,1.65926811 0.166980673,4.65764121" id="Fill-26" fill="#FEFEFE"></path>
                <path d="M8.16984395,0.554604338 C8.16984395,0.554604338 1.09754617,1.65926811 0.166980673,4.65764121" id="Stroke-28" stroke="#6F6F6E" stroke-width="1.5" stroke-linecap="round" stroke-linejoin="round"></path>
            </g>
            <g id="Group-33" transform="translate(88.488189, 18.937093)">
                <path d="M5.22952441,0.396795228 C5.22952441,0.396795228 3.52873701,5.28887766 0.552359055,4.89435488" id="Fill-30" fill="#FEFEFE"></path>
                <path d="M5.22952441,0.396795228 C5.22952441,0.396795228 3.52873701,5.28887766 0.552359055,4.89435488" id="Stroke-32" stroke="#6F6F6E" stroke-width="1.5" stroke-linecap="round" stroke-linejoin="round"></path>
            </g>
            <g id="Group-37" transform="translate(90.377953, 20.830803)">
                <path d="M0.0408809899,7.15241388 C0.0408809899,7.15241388 10.2283576,2.39386224 11.6389312,0.0145864175" id="Fill-34" fill="#FEFEFE"></path>
                <path d="M0.0408809899,7.15241388 C0.0408809899,7.15241388 10.2283576,2.39386224 11.6389312,0.0145864175" id="Stroke-36" stroke="#6F6F6E" stroke-width="1.5" stroke-linecap="round" stroke-linejoin="round"></path>
            </g>
            <g id="Group-41" transform="translate(89.118110, 17.674620)">
                <path d="M20.7707629,0.268859382 C20.7707629,0.268859382 8.46980052,10.2108334 0.0533525809,11.2760448" id="Fill-38" fill="#FEFEFE"></path>
                <path d="M20.7707629,0.268859382 C20.7707629,0.268859382 8.46980052,10.2108334 0.0533525809,11.2760448" id="Stroke-40" stroke="#6F6F6E" stroke-width="1.5" stroke-linecap="round" stroke-linejoin="round"></path>
            </g>
            <g id="Group-45" transform="translate(94.787402, 18.937093)">
                <path d="M0.156164111,12.6819902 C0.156164111,12.6819902 18.2581119,7.41253819 26.2647426,0.00237125342" id="Fill-42" fill="#FEFEFE"></path>
                <path d="M0.156164111,12.6819902 C0.156164111,12.6819902 18.2581119,7.41253819 26.2647426,0.00237125342" id="Stroke-44" stroke="#6F6F6E" stroke-width="1.5" stroke-linecap="round" stroke-linejoin="round"></path>
            </g>
            <g id="Group-49" transform="translate(97.307087, 15.149675)">
                <path d="M39.0378127,0.266561438 C39.0378127,0.266561438 11.9349074,16.6362219 0.487717622,18.0443647" id="Fill-46" fill="#FEFEFE"></path>
                <path d="M39.0378127,0.266561438 C39.0378127,0.266561438 11.9349074,16.6362219 0.487717622,18.0443647" id="Stroke-48" stroke="#6F6F6E" stroke-width="1.5" stroke-linecap="round" stroke-linejoin="round"></path>
            </g>
            <path d="M63.8815672,31.4073625 C63.9455425,30.7119523 62.9212598,25.9211221 62.9212598,25.9211221 C62.9212598,25.9211221 65.1477398,21.6410873 73.2325263,20.3689446 C81.3173129,19.0961079 86.3551895,21.5251856 86.3551895,21.5251856 L87.2283465,25.6809904 L76.9817582,28.7402402 C68.2056474,30.9819285 63.838917,31.8709693 63.8815672,31.4073625 Z" id="Fill-50" fill="#F1B646"></path>
            <path d="M87.2030148,25.757084 C87.6235183,27.7102552 82.7587629,30.4794678 76.3360317,31.9418924 C69.9139821,33.4050182 64.3670159,33.0075135 63.9465124,31.0543423 C63.5266904,29.1011711 68.3914458,26.3319585 74.8134955,24.8688327 C81.2355451,23.4064081 86.7825113,23.8039128 87.2030148,25.757084" id="Fill-54" fill="#F1B646"></path>
            <path d="M104.866142,108.116134 L81.7785082,26.9536313 C81.7785082,26.9536313 77.2988181,25.9598047 74.8866773,26.9536313 C72.4745365,27.9474578 70.0623957,28.9412844 71.0961703,31.9227641 C72.1299449,34.9042438 93.1500292,111.097614 93.1500292,111.097614 L103.143184,111.097614 L104.866142,108.116134 Z" id="Fill-58" fill="#F1B646"></path>
            <path d="M123.003438,118.557207 C123.003438,118.557207 125.887937,125.451832 104.526097,129.182713 C86.7837816,132.28204 83.0544101,129.844151 81.6413173,128.020548 C80.6120108,126.691032 89.3400963,115.236737 102.322378,114.90469 C115.305337,114.572643 123.003438,118.557207 123.003438,118.557207" id="Fill-62" fill="#816B56"></path>
            <path d="M123.133858,118.930843 C123.133858,118.930843 114.103274,106.165892 97.7459882,109.88227 C81.3887028,113.598649 81.5590551,128.140998 81.5590551,128.140998 C81.5590551,128.140998 98.5979301,116.183955 123.133858,118.930843" id="Fill-66" fill="#E3C24F"></path>
        </g>
    </g>
</svg>